<svg width="40" height="40" viewBox="0 0 40 40" fill="none" xmlns="http://www.w3.org/2000/svg">
<circle cx="20" cy="20" r="20" fill="#8FB39C"/>
<path d="M17 28H23V30H17V28ZM24.906 21.712C25.936 20.506 27 19.259 27 17C27 13.141 23.859 10 20 10C16.141 10 13 13.141 13 17C13 19.285 14.067 20.528 15.101 21.73C15.459 22.148 15.83 22.581 16.185 23.079C16.329 23.285 16.565 24.075 16.776 25H15.984V27H24.016V25H23.226C23.439 24.073 23.676 23.281 23.819 23.075C24.171 22.572 24.545 22.135 24.906 21.712Z" fill="#F5F5F5"/>
</svg>
