<svg width="439" height="93" viewBox="0 0 439 93" fill="none" xmlns="http://www.w3.org/2000/svg">
<g clip-path="url(#clip0_204_191)">
<path d="M1.24316 60.9721V55.8324C2.71578 55.8324 3.8479 55.2377 4.63102 54.0568C5.42266 52.8759 6.01851 50.5821 6.4271 47.184L8.01888 33.2769H27.3841V60.4794H21.5448V38.3741H13.2539L12.1899 47.5917C11.8664 50.3358 11.3812 52.6126 10.7428 54.4221C10.1044 56.2316 9.2872 57.5994 8.29127 58.5169C7.29534 59.4429 6.25685 60.0801 5.16729 60.4369C4.07773 60.7937 2.76685 60.9721 1.24316 60.9721Z" fill="#2F302F"/>
<path d="M45.6594 60.972C41.548 60.972 38.1517 59.6467 35.4618 56.9961C32.7805 54.3455 31.4355 50.9813 31.4355 46.9035C31.4355 42.8256 32.7805 39.4614 35.4618 36.8108C38.1432 34.1603 41.5395 32.835 45.6594 32.835C49.7964 32.835 53.2098 34.1518 55.8911 36.7939C58.5725 39.4275 59.9174 42.8002 59.9174 46.9035C59.9174 51.0068 58.5725 54.3795 55.8911 57.0131C53.2098 59.6467 49.7964 60.972 45.6594 60.972ZM39.6668 53.3006C41.182 54.9827 43.1739 55.8322 45.6509 55.8322C48.128 55.8322 50.1283 54.9912 51.6605 53.3006C53.1842 51.6185 53.9503 49.4776 53.9503 46.895C53.9503 44.3124 53.1842 42.18 51.6605 40.4894C50.1369 38.8073 48.1365 37.9577 45.6509 37.9577C43.1739 37.9577 41.1735 38.7988 39.6668 40.4894C38.1517 42.1715 37.4026 44.3124 37.4026 46.895C37.4026 49.4861 38.1602 51.6185 39.6668 53.3006Z" fill="#2F302F"/>
<path d="M87.3356 60.4794H80.1853L71.9285 49.5882L69.8004 52.1198V60.4794H63.9951V33.2769H69.8004V45.4254L79.4448 33.2769H86.595L75.7675 46.0456L87.3356 60.4794Z" fill="#2F302F"/>
<path d="M115.4 60.4794H108.778L107.101 55.8748H95.422L93.7026 60.4794H87.0801L97.6182 33.2769H104.888L115.4 60.4794ZM105.518 50.7775L101.27 39.0708L97.0223 50.7775H105.518Z" fill="#2F302F"/>
<path d="M116.303 60.9721V55.8324C117.775 55.8324 118.907 55.2377 119.691 54.0568C120.482 52.8759 121.078 50.5821 121.487 47.184L123.078 33.2769H142.444V60.4794H136.604V38.3741H128.313L127.249 47.5917C126.926 50.3358 126.441 52.6126 125.802 54.4221C125.164 56.2316 124.347 57.5994 123.351 58.5169C122.355 59.4429 121.316 60.0801 120.227 60.4369C119.137 60.7937 117.826 60.9721 116.303 60.9721Z" fill="#2F302F"/>
<path d="M147.798 33.2769H153.603V42.9447H160.549C163.383 42.9447 165.614 43.7858 167.248 45.4764C168.882 47.1585 169.699 49.2399 169.699 51.712C169.699 54.2097 168.891 56.2996 167.265 57.9732C165.648 59.6468 163.4 60.4794 160.54 60.4794H147.789V33.2769H147.798ZM159.774 48.042H153.603V55.3821H159.774C160.949 55.3821 161.902 55.0508 162.651 54.3796C163.4 53.717 163.775 52.825 163.775 51.712C163.775 50.5991 163.4 49.7071 162.651 49.0445C161.902 48.3733 160.94 48.042 159.774 48.042Z" fill="#2F302F"/>
<path d="M197.816 60.4794H191.976V49.0615H179.097V60.4794H173.292V33.2769H179.097V43.9642H191.968V33.2769H197.807V60.4794H197.816Z" fill="#2F302F"/>
<path d="M208.762 60.4794H203.161V33.2769H208.966V50.854L221.59 33.2769H227.557V60.4794H221.752V42.2481L208.762 60.4794Z" fill="#2F302F"/>
<path d="M238.546 60.4793H232.945V33.2768H238.751V50.8539L251.374 33.2768H257.341V60.4793H251.536V42.248L238.546 60.4793ZM252.319 28.4258C250.549 30.8216 248.165 32.0109 245.169 32.0109C242.198 32.0109 239.806 30.8131 237.976 28.4258L240.266 26.5059C241.466 28.1965 243.1 29.0375 245.169 29.0375C247.186 29.0375 248.804 28.1965 250.029 26.5059L252.319 28.4258Z" fill="#2F302F"/>
<path d="M296.523 60.4794H289.373L281.116 49.5882L278.988 52.1198V60.4794H273.183V33.2769H278.988V45.4254L288.632 33.2769H295.783L284.964 46.0456L296.523 60.4794Z" fill="#F2F2F2"/>
<path d="M297.545 60.9721V55.8324C299.018 55.8324 300.15 55.2377 300.933 54.0568C301.724 52.8759 302.32 50.5821 302.729 47.184L304.321 33.2769H323.686V60.4794H317.847V38.3741H309.556L308.492 47.5917C308.168 50.3358 307.683 52.6126 307.045 54.4221C306.406 56.2316 305.589 57.5994 304.593 58.5169C303.597 59.4429 302.559 60.0801 301.469 60.4369C300.38 60.7937 299.069 60.9721 297.545 60.9721Z" fill="#F2F2F2"/>
<path d="M334.853 60.4794H329.048V33.2769H334.853V60.4794Z" fill="#F2F2F2"/>
<path d="M413.583 60.4794H407.743V49.0615H394.873V60.4794H389.067V33.2769H394.873V43.9642H407.743V33.2769H413.583V60.4794Z" fill="#F2F2F2"/>
<path d="M431.067 60.4794H425.227V38.3741H417.26V33.2769H439V38.3741H431.075V60.4794H431.067Z" fill="#F2F2F2"/>
<path d="M4.30718 89.7208C3.03035 89.7208 1.99186 89.2875 1.20022 88.4295C0.400074 87.5629 0 86.484 0 85.1842C0 83.8844 0.400074 82.814 1.20022 81.9559C2.00037 81.0979 3.03886 80.6731 4.30718 80.6731C5.64359 80.6731 6.69911 81.1743 7.47372 82.1683L6.57994 82.9924C6.03515 82.2448 5.3031 81.871 4.38379 81.871C3.48149 81.871 2.75795 82.1768 2.21317 82.797C1.66839 83.4171 1.396 84.2157 1.396 85.1842C1.396 86.1612 1.66839 86.9597 2.21317 87.5799C2.75795 88.2086 3.48149 88.5144 4.38379 88.5144C5.28608 88.5144 6.01813 88.1406 6.57994 87.393L7.47372 88.2171C6.69911 89.2195 5.64359 89.7208 4.30718 89.7208Z" fill="#F2F2F2"/>
<path d="M13.2446 89.7208C11.9592 89.7208 10.9037 89.3045 10.078 88.4635C9.25234 87.6224 8.84375 86.535 8.84375 85.1927C8.84375 83.9354 9.25234 82.865 10.061 81.9899C10.8697 81.1149 11.8826 80.6816 13.0999 80.6816C14.3767 80.6816 15.3811 81.1149 16.1302 81.9899C16.8793 82.865 17.2453 83.9694 17.2453 85.3032V85.643H10.2568C10.3164 86.484 10.6228 87.1977 11.1846 87.7669C11.7464 88.3361 12.4699 88.6249 13.3637 88.6249C14.4363 88.6249 15.3215 88.2596 16.0281 87.5375L16.675 88.4125C15.7982 89.2791 14.6491 89.7208 13.2446 89.7208ZM15.9259 84.649C15.9174 83.9184 15.662 83.2558 15.1768 82.6611C14.6916 82.0749 13.9936 81.7776 13.0828 81.7776C12.2231 81.7776 11.5506 82.0664 11.0569 82.6526C10.5632 83.2388 10.2993 83.9014 10.2653 84.649H15.9259Z" fill="#F2F2F2"/>
<path d="M23.6636 89.7208C22.4464 89.7208 21.476 89.2195 20.7524 88.2001V92.7876H19.416V80.8855H20.7524V82.1683C21.0759 81.718 21.493 81.3527 22.0037 81.0809C22.5145 80.809 23.0678 80.6731 23.6636 80.6731C24.8042 80.6731 25.7321 81.0809 26.4471 81.8964C27.1621 82.712 27.5111 83.8079 27.5111 85.1842C27.5111 86.5605 27.1536 87.6649 26.4471 88.4804C25.7406 89.296 24.8128 89.7208 23.6636 89.7208ZM23.3231 88.5229C24.1658 88.5229 24.8468 88.2086 25.3405 87.5884C25.8427 86.9682 26.0896 86.1612 26.0896 85.1927C26.0896 84.2157 25.8427 83.4171 25.3405 82.8055C24.8383 82.1853 24.1658 81.8795 23.3231 81.8795C22.8124 81.8795 22.3102 82.0154 21.8335 82.2787C21.3483 82.5506 20.9908 82.8734 20.7524 83.2472V87.1382C20.9908 87.5289 21.3483 87.8603 21.8335 88.1321C22.3187 88.387 22.8124 88.5229 23.3231 88.5229Z" fill="#F2F2F2"/>
<path d="M34.4831 89.5084H29.6396V80.8855H34.398C35.147 80.8855 35.7429 81.0894 36.177 81.4887C36.6111 81.8965 36.8325 82.4317 36.8325 83.0943C36.8325 83.5786 36.6963 84.0033 36.4324 84.3517C36.1685 84.7 35.8365 84.9378 35.4365 85.0568C35.8791 85.1672 36.2536 85.4221 36.5516 85.8214C36.858 86.2292 37.0112 86.6709 37.0112 87.1637C37.0112 87.8688 36.7899 88.4295 36.3388 88.8628C35.8876 89.296 35.2662 89.5084 34.4831 89.5084ZM34.1596 84.4961C34.5682 84.4961 34.8832 84.3856 35.1045 84.1648C35.3343 83.9439 35.445 83.655 35.445 83.2982C35.445 82.9159 35.3343 82.6186 35.1045 82.3977C34.8747 82.1768 34.5597 82.0664 34.1596 82.0664H30.9761V84.4961H34.1596ZM34.2107 88.3275C34.6363 88.3275 34.9768 88.2086 35.2322 87.9707C35.4875 87.7329 35.6067 87.41 35.6067 87.0107C35.6067 86.6454 35.479 86.3311 35.2322 86.0677C34.9853 85.8044 34.6448 85.6769 34.2107 85.6769H30.9761V88.336H34.2107V88.3275Z" fill="#F2F2F2"/>
<path d="M40.2034 79.6621C39.965 79.6621 39.7607 79.5772 39.582 79.4073C39.4032 79.2374 39.3096 79.025 39.3096 78.7701C39.3096 78.5152 39.4032 78.3028 39.582 78.1244C39.7607 77.946 39.965 77.8611 40.2034 77.8611C40.4502 77.8611 40.6715 77.946 40.8503 78.1244C41.029 78.3028 41.1142 78.5152 41.1142 78.7701C41.1142 79.025 41.029 79.2289 40.8503 79.4073C40.6715 79.5857 40.4502 79.6621 40.2034 79.6621ZM40.8843 89.5084H39.5479V80.8855H40.8843V89.5084Z" fill="#F2F2F2"/>
<path d="M47.3707 89.7208C46.0938 89.7208 45.0553 89.2876 44.2637 88.4295C43.4636 87.5715 43.0635 86.484 43.0635 85.1927C43.0635 83.8929 43.4636 82.8225 44.2637 81.9645C45.0638 81.1064 46.1023 80.6816 47.3707 80.6816C48.7071 80.6816 49.7626 81.1829 50.5372 82.1768L49.6434 83.0009C49.0986 82.2533 48.3666 81.8795 47.4473 81.8795C46.545 81.8795 45.8214 82.1853 45.2766 82.8055C44.7319 83.4257 44.4595 84.2243 44.4595 85.1927C44.4595 86.1697 44.7319 86.9683 45.2766 87.5885C45.8214 88.2171 46.545 88.523 47.4473 88.523C48.3496 88.523 49.0816 88.1492 49.6434 87.4016L50.5372 88.2256C49.7626 89.2196 48.7071 89.7208 47.3707 89.7208Z" fill="#F2F2F2"/>
<path d="M64.2077 89.5084H62.8628V82.0664H58.3599V89.5084H57.0234V80.8855H64.2077V89.5084Z" fill="#F2F2F2"/>
<path d="M73.7671 88.421C72.984 89.2876 71.954 89.7208 70.6686 89.7208C69.3833 89.7208 68.3448 89.2876 67.5702 88.421C66.7871 87.5545 66.3955 86.4756 66.3955 85.1927C66.3955 83.9099 66.7871 82.831 67.5702 81.973C68.3533 81.1064 69.3833 80.6816 70.6686 80.6816C71.954 80.6816 72.9925 81.1149 73.7671 81.973C74.5502 82.831 74.9418 83.9099 74.9418 85.1927C74.9418 86.4756 74.5417 87.546 73.7671 88.421ZM68.5576 87.5545C69.0769 88.2001 69.7749 88.523 70.6601 88.523C71.5454 88.523 72.2349 88.2001 72.7541 87.5545C73.2649 86.9088 73.5202 86.1187 73.5202 85.1927C73.5202 84.2667 73.2649 83.4767 72.7541 82.8395C72.2434 82.1938 71.5454 81.8795 70.6601 81.8795C69.7749 81.8795 69.0769 82.2023 68.5576 82.848C68.0384 83.4936 67.783 84.2752 67.783 85.1927C67.783 86.1187 68.0469 86.9003 68.5576 87.5545Z" fill="#F2F2F2"/>
<path d="M87.0886 80.8855H88.4335V89.4999H77.1123V80.8855H78.4487V88.3275H82.092V80.8855H83.4369V88.3275H87.0801V80.8855H87.0886Z" fill="#F2F2F2"/>
<path d="M90.629 92.8812L90.8418 91.6663C91.0546 91.7598 91.3014 91.8107 91.5738 91.8107C91.8803 91.8107 92.1442 91.7428 92.3399 91.6153C92.5442 91.4879 92.7145 91.25 92.8592 90.9017L93.4295 89.6019L89.8203 80.894H91.2674L94.1445 87.9623L97.0046 80.894H98.4687L94.1445 91.2585C93.6678 92.3969 92.8251 92.9831 91.6079 93.0086C91.2504 93.0001 90.9269 92.9576 90.629 92.8812Z" fill="#F2F2F2"/>
<path d="M107.467 89.5084H105.747L102.64 85.6345L101.21 87.0447V89.5084H99.874V80.8855H101.21V85.4731L105.747 80.8855H107.45L103.628 84.7934L107.467 89.5084Z" fill="#F2F2F2"/>
<path d="M108.573 92.8812L108.786 91.6663C108.999 91.7598 109.246 91.8107 109.518 91.8107C109.825 91.8107 110.08 91.7428 110.284 91.6153C110.489 91.4879 110.659 91.25 110.804 90.9017L111.374 89.6019L107.765 80.894H109.212L112.089 87.9623L114.949 80.894H116.413L112.089 91.2585C111.612 92.3969 110.769 92.9831 109.552 93.0086C109.203 93.0001 108.871 92.9576 108.573 92.8812Z" fill="#F2F2F2"/>
<path d="M130.024 89.5084H128.305L125.198 85.6345L123.768 87.0447V89.5084H122.423V80.8855H123.768V85.4731L128.305 80.8855H130.007L126.185 84.7934L130.024 89.5084Z" fill="#F2F2F2"/>
<path d="M130.595 89.7208V88.6164C131.003 88.6164 131.335 88.3445 131.599 87.8093C131.863 87.2741 132.076 86.3821 132.246 85.1332L132.799 80.8855H138.809V89.4999H137.464V82.0664H133.983L133.591 85.2947C133.404 86.8748 133.063 88.0132 132.587 88.6928C132.101 89.381 131.446 89.7208 130.595 89.7208Z" fill="#F2F2F2"/>
<path d="M142.145 79.6621C141.907 79.6621 141.694 79.5772 141.516 79.4073C141.337 79.2374 141.243 79.025 141.243 78.7701C141.243 78.5152 141.337 78.3028 141.516 78.1244C141.694 77.946 141.907 77.8611 142.145 77.8611C142.392 77.8611 142.614 77.946 142.792 78.1244C142.971 78.3028 143.056 78.5152 143.056 78.7701C143.056 79.025 142.971 79.2289 142.792 79.4073C142.614 79.5857 142.392 79.6621 142.145 79.6621ZM142.826 89.5084H141.482V80.8855H142.826V89.5084Z" fill="#F2F2F2"/>
<path d="M149.313 89.7208C148.036 89.7208 146.998 89.2876 146.206 88.4295C145.406 87.5715 145.006 86.484 145.006 85.1927C145.006 83.8929 145.406 82.8225 146.206 81.9645C147.006 81.1064 148.045 80.6816 149.313 80.6816C150.649 80.6816 151.705 81.1829 152.48 82.1768L151.62 82.9584C151.05 82.1768 150.3 81.7776 149.39 81.7776C148.581 81.7776 147.909 82.0324 147.389 82.5337C146.87 83.0349 146.547 83.7145 146.444 84.5556H150.786V85.7195H146.427C146.521 86.603 146.836 87.2996 147.355 87.8263C147.874 88.3531 148.555 88.6079 149.39 88.6079C150.292 88.6079 151.041 88.2171 151.62 87.4271L152.48 88.2086C151.705 89.2196 150.649 89.7208 149.313 89.7208Z" fill="#F2F2F2"/>
<path d="M155.697 89.5084H154.36V80.8855H155.697V84.4706H160.2V80.8855H161.545V89.4999H160.2V85.643H155.697V89.5084Z" fill="#F2F2F2"/>
<path d="M167.138 89.5084H165.793V82.0664H163.29V80.8855H169.657V82.0664H167.138V89.5084Z" fill="#F2F2F2"/>
<path d="M172.065 79.6621C171.827 79.6621 171.614 79.5772 171.435 79.4073C171.257 79.2374 171.163 79.025 171.163 78.7701C171.163 78.5152 171.257 78.3028 171.435 78.1244C171.614 77.946 171.827 77.8611 172.065 77.8611C172.312 77.8611 172.534 77.946 172.712 78.1244C172.891 78.3028 172.976 78.5152 172.976 78.7701C172.976 79.025 172.891 79.2289 172.712 79.4073C172.534 79.5857 172.321 79.6621 172.065 79.6621ZM172.746 89.5084H171.401V80.8855H172.746V89.5084Z" fill="#F2F2F2"/>
<path d="M180.271 89.5084H175.428V80.8855H180.186C180.935 80.8855 181.531 81.0894 181.965 81.4887C182.399 81.8965 182.621 82.4317 182.621 83.0943C182.621 83.5786 182.484 84.0033 182.22 84.3517C181.948 84.7 181.625 84.9378 181.225 85.0568C181.667 85.1672 182.042 85.4221 182.34 85.8214C182.646 86.2292 182.799 86.6709 182.799 87.1637C182.799 87.8688 182.578 88.4295 182.127 88.8628C181.676 89.2875 181.063 89.5084 180.271 89.5084ZM179.948 84.4961C180.356 84.4961 180.671 84.3856 180.893 84.1648C181.122 83.9439 181.233 83.655 181.233 83.2982C181.233 82.9159 181.122 82.6186 180.893 82.3977C180.663 82.1768 180.348 82.0664 179.948 82.0664H176.764V84.4961H179.948ZM180.007 88.3275C180.433 88.3275 180.773 88.2086 181.029 87.9707C181.284 87.7329 181.403 87.41 181.403 87.0107C181.403 86.6454 181.276 86.3311 181.029 86.0677C180.782 85.8044 180.441 85.6769 180.007 85.6769H176.773V88.336H180.007V88.3275Z" fill="#F2F2F2"/>
<path d="M374.545 3.925C375.115 4.00146 375.626 3.59367 375.694 3.02448C375.771 2.45528 375.362 1.93705 374.792 1.87759V1.8606C374.749 1.8606 374.707 1.8606 374.664 1.8606C374.145 1.8606 373.702 2.24289 373.634 2.76961C373.566 3.33881 373.975 3.84854 374.545 3.925Z" fill="#F2F2F2"/>
<path d="M380.385 5.25879C380.921 5.44569 381.517 5.16534 381.704 4.61313C381.891 4.07792 381.602 3.48323 381.057 3.29633C380.946 3.26235 380.827 3.24536 380.717 3.24536C380.291 3.24536 379.891 3.51722 379.738 3.94199C379.55 4.4942 379.84 5.08038 380.385 5.25879Z" fill="#F2F2F2"/>
<path d="M377.498 4.44326C378.06 4.57069 378.605 4.22238 378.741 3.67017C378.869 3.10947 378.511 2.54877 377.967 2.42983C377.881 2.41284 377.813 2.41284 377.728 2.41284C377.26 2.41284 376.826 2.73567 376.724 3.21142C376.588 3.75513 376.937 4.31583 377.498 4.44326Z" fill="#F2F2F2"/>
<path d="M354.789 9.44718C355.248 9.10736 355.342 8.45321 355.01 8.00295C354.806 7.7226 354.491 7.58667 354.167 7.58667C353.946 7.58667 353.733 7.64614 353.554 7.78207C353.086 8.12188 352.992 8.77604 353.333 9.2263C353.682 9.70204 354.337 9.79549 354.789 9.44718Z" fill="#F2F2F2"/>
<path d="M348.268 14.4C348.081 14.2641 347.877 14.2046 347.664 14.2046C347.332 14.2046 347.017 14.3575 346.813 14.6379C346.481 15.1051 346.583 15.7423 347.051 16.0821C347.519 16.4134 348.175 16.303 348.506 15.8442C348.838 15.3855 348.728 14.7313 348.268 14.4Z" fill="#F2F2F2"/>
<path d="M350.371 13.4993C350.754 13.0745 350.711 12.4204 350.286 12.0381C350.09 11.8597 349.843 11.7832 349.605 11.7832C349.315 11.7832 349.026 11.9021 348.83 12.14C348.447 12.5648 348.489 13.2189 348.915 13.6012C349.341 13.9665 349.996 13.9326 350.371 13.4993Z" fill="#F2F2F2"/>
<path d="M352.481 11.3585C352.907 10.9762 352.924 10.322 352.541 9.89724C352.337 9.67636 352.056 9.56592 351.775 9.56592C351.528 9.56592 351.281 9.65937 351.077 9.83777C350.651 10.2286 350.617 10.8827 351.017 11.3075C351.4 11.7238 352.064 11.7578 352.481 11.367C352.481 11.367 352.481 11.367 352.481 11.3585Z" fill="#F2F2F2"/>
<path d="M346.489 16.957C346.335 16.8635 346.148 16.821 345.978 16.821C345.612 16.821 345.263 17.0079 345.076 17.3393C344.786 17.832 344.965 18.4692 345.459 18.7495C345.952 19.0384 346.591 18.86 346.872 18.3672C346.872 18.3672 346.872 18.3672 346.88 18.3672C347.17 17.866 346.991 17.2373 346.489 16.957Z" fill="#F2F2F2"/>
<path d="M342.675 25.4951C342.199 25.4951 341.765 25.8264 341.671 26.3107C341.543 26.8714 341.909 27.4236 342.471 27.534C343.033 27.6615 343.578 27.2962 343.697 26.7355C343.825 26.1748 343.458 25.631 342.897 25.5121C342.82 25.4951 342.743 25.4951 342.675 25.4951Z" fill="#F2F2F2"/>
<path d="M344.999 19.684C344.863 19.6246 344.718 19.5906 344.582 19.5906C344.173 19.5906 343.807 19.8285 343.629 20.2107C343.399 20.7375 343.637 21.3491 344.156 21.5785C344.684 21.8079 345.297 21.57 345.527 21.0518C345.757 20.5166 345.518 19.9049 344.999 19.684Z" fill="#F2F2F2"/>
<path d="M343.791 22.5386C343.689 22.5046 343.569 22.4961 343.467 22.4961C343.033 22.4961 342.624 22.7764 342.48 23.2097C342.301 23.7619 342.607 24.3396 343.152 24.518C343.689 24.6964 344.284 24.3906 344.446 23.8469C344.633 23.3032 344.335 22.717 343.791 22.5386Z" fill="#F2F2F2"/>
<path d="M357.64 6.36324C357.444 6.03192 357.104 5.85352 356.746 5.85352C356.567 5.85352 356.38 5.89599 356.218 5.99794C355.733 6.28679 355.563 6.93244 355.869 7.41668C356.159 7.91792 356.789 8.07084 357.291 7.78199C357.776 7.48465 357.946 6.85598 357.64 6.36324Z" fill="#F2F2F2"/>
<path d="M369.472 2.76961C369.412 2.24289 368.961 1.8606 368.442 1.8606C368.399 1.8606 368.356 1.8606 368.314 1.8606V1.86909C367.744 1.92856 367.335 2.44678 367.412 3.01598C367.488 3.58518 367.99 3.99296 368.561 3.9165C369.14 3.84854 369.54 3.33881 369.472 2.76961Z" fill="#F2F2F2"/>
<path d="M363.369 3.94199C363.224 3.51722 362.815 3.24536 362.39 3.24536C362.279 3.24536 362.16 3.26235 362.049 3.29633C361.513 3.48323 361.224 4.06942 361.402 4.61313C361.59 5.16534 362.177 5.44569 362.722 5.25879C363.267 5.08038 363.556 4.4942 363.369 3.94199Z" fill="#F2F2F2"/>
<path d="M366.39 3.19433C366.288 2.71858 365.854 2.39575 365.386 2.39575C365.301 2.39575 365.233 2.39575 365.148 2.41274C364.594 2.54018 364.245 3.09238 364.373 3.65308C364.509 4.21378 365.054 4.5536 365.616 4.42617C366.169 4.31573 366.527 3.75503 366.39 3.19433Z" fill="#F2F2F2"/>
<path d="M360.44 5.01236C360.262 4.63006 359.887 4.40918 359.496 4.40918C359.351 4.40918 359.206 4.44316 359.062 4.50263C358.542 4.7405 358.321 5.36067 358.568 5.8789C358.815 6.39712 359.419 6.6265 359.947 6.37164C360.466 6.14226 360.687 5.53058 360.44 5.01236Z" fill="#F2F2F2"/>
<path d="M371.574 4.93587C371.064 4.93587 370.646 4.51959 370.646 4.00987V0.926007C370.646 0.416278 371.064 0 371.574 0C372.085 0 372.502 0.416278 372.502 0.926007V4.00987C372.502 4.51959 372.085 4.93587 371.574 4.93587Z" fill="#F2F2F2"/>
<path d="M340.207 29.2754C340.207 28.7656 340.624 28.3494 341.135 28.3494H344.225C344.736 28.3494 345.153 28.7656 345.153 29.2754C345.153 29.7851 344.736 30.2014 344.225 30.2014H341.135C340.624 30.2014 340.207 29.7851 340.207 29.2754Z" fill="#F2F2F2"/>
<path d="M381.755 61.3799C378.691 62.4928 375.38 63.096 371.924 63.096C356.006 63.096 343.093 50.2168 343.093 34.3218" stroke="#F2F2F2" stroke-width="5" stroke-miterlimit="10"/>
<path d="M378.24 29.3858L384.011 23.6259C384.633 23.0057 384.633 22.0033 384.011 21.3831C383.39 20.7629 382.385 20.7629 381.764 21.3831L375.993 27.143C373.558 25.7158 370.383 26.0216 368.298 28.103C367.463 28.9356 366.944 29.938 366.672 31H348.107C347.23 31 346.523 31.7051 346.523 32.5801C346.523 33.0134 346.702 33.4127 346.992 33.7015C347.281 33.9904 347.673 34.1688 348.115 34.1688H366.68C366.953 35.2307 367.48 36.2332 368.306 37.0658C370.783 39.5379 374.801 39.5379 377.278 37.0658C379.355 34.9844 379.661 31.807 378.24 29.3858ZM370.545 34.8229C369.311 33.5911 369.311 31.5777 370.545 30.3458C371.779 29.114 373.797 29.114 375.031 30.3458C376.265 31.5777 376.265 33.5911 375.031 34.8229C373.797 36.0548 371.779 36.0548 370.545 34.8229Z" fill="#F2F2F2"/>
</g>
<defs>
<clipPath id="clip0_204_191">
<rect width="439" height="93" fill="white"/>
</clipPath>
</defs>
</svg>
