<svg width="149" height="75" viewBox="0 0 149 75" fill="none" xmlns="http://www.w3.org/2000/svg">
<g clip-path="url(#clip0_204_70)">
<path d="M0.719727 19.946V16.9716C1.57237 16.9716 2.22786 16.6274 2.68129 15.944C3.13965 15.2606 3.48464 13.9332 3.72122 11.9666L4.64285 3.91846H15.8553V19.6608H12.4743V6.86831H7.67391L7.05784 12.2026C6.87056 13.7906 6.58963 15.1082 6.21999 16.1554C5.85035 17.2026 5.37721 17.9942 4.80057 18.5251C4.22393 19.061 3.62264 19.4298 2.99179 19.6363C2.36093 19.8427 1.60194 19.946 0.719727 19.946Z" fill="#F2F2F2"/>
<path d="M26.4368 19.9458C24.0563 19.9458 22.0898 19.1788 20.5324 17.6449C18.9799 16.111 18.2012 14.1641 18.2012 11.8042C18.2012 9.44431 18.9799 7.49741 20.5324 5.96348C22.0849 4.42956 24.0514 3.6626 26.4368 3.6626C28.8321 3.6626 30.8084 4.42464 32.3609 5.95365C33.9134 7.47774 34.6921 9.42956 34.6921 11.8042C34.6921 14.1788 33.9134 16.1306 32.3609 17.6547C30.8084 19.1788 28.8321 19.9458 26.4368 19.9458ZM22.9671 15.5063C23.8444 16.4797 24.9976 16.9713 26.4319 16.9713C27.8661 16.9713 29.0243 16.4846 29.9114 15.5063C30.7936 14.5328 31.2372 13.2939 31.2372 11.7993C31.2372 10.3047 30.7936 9.07066 29.9114 8.09229C29.0292 7.11884 27.871 6.6272 26.4319 6.6272C24.9976 6.6272 23.8394 7.11392 22.9671 8.09229C22.0898 9.06574 21.6561 10.3047 21.6561 11.7993C21.6561 13.2988 22.0947 14.5328 22.9671 15.5063Z" fill="#F2F2F2"/>
<path d="M50.5673 19.6608H46.4273L41.6466 13.358L40.4145 14.8231V19.6608H37.0532V3.91846H40.4145V10.9489L45.9985 3.91846H50.1385L43.8694 11.3078L50.5673 19.6608Z" fill="#F2F2F2"/>
<path d="M66.8167 19.6608H62.9823L62.0114 16.9961H55.2494L54.2538 19.6608H50.4194L56.521 3.91846H60.73L66.8167 19.6608ZM61.0947 14.0463L58.6353 7.27146L56.176 14.0463H61.0947Z" fill="#F2F2F2"/>
<path d="M67.3389 19.946V16.9716C68.1915 16.9716 68.847 16.6274 69.3004 15.944C69.7588 15.2606 70.1038 13.9332 70.3404 11.9666L71.262 3.91846H82.4744V19.6608H79.0935V6.86831H74.2931L73.677 12.2026C73.4897 13.7906 73.2088 15.1082 72.8391 16.1554C72.4695 17.2026 71.9963 17.9942 71.4197 18.5251C70.8431 19.061 70.2418 19.4298 69.6109 19.6363C68.9801 19.8427 68.2211 19.946 67.3389 19.946Z" fill="#F2F2F2"/>
<path d="M85.5748 3.91846H88.936V9.51334H92.9577C94.5989 9.51334 95.8902 10.0001 96.8365 10.9784C97.7828 11.9519 98.2559 13.1564 98.2559 14.5871C98.2559 16.0325 97.7877 17.242 96.8464 18.2105C95.9099 19.179 94.6088 19.6608 92.9528 19.6608H85.5698L85.5748 3.91846ZM92.5092 12.4632H88.936V16.711H92.5092C93.1894 16.711 93.7414 16.5192 94.1751 16.1308C94.6088 15.7474 94.8256 15.2311 94.8256 14.5871C94.8256 13.943 94.6088 13.4268 94.1751 13.0433C93.7414 12.6549 93.1844 12.4632 92.5092 12.4632Z" fill="#F2F2F2"/>
<path d="M114.535 19.6608H111.154V13.0532H103.697V19.6608H100.335V3.91846H103.697V10.1033H111.149V3.91846H114.53V19.6608H114.535Z" fill="#F2F2F2"/>
<path d="M120.873 19.6608H117.63V3.91846H120.991V14.0905L128.3 3.91846H131.755V19.6608H128.394V9.1102L120.873 19.6608Z" fill="#F2F2F2"/>
<path d="M138.118 19.6608H134.875V3.91839H138.236V14.0905L145.545 3.91839H149V19.6608H145.639V9.11013L138.118 19.6608ZM146.092 1.11111C145.067 2.49754 143.687 3.18584 141.952 3.18584C140.232 3.18584 138.847 2.49263 137.788 1.11111L139.114 0C139.808 0.978368 140.755 1.46509 141.952 1.46509C143.12 1.46509 144.057 0.978368 144.767 0L146.092 1.11111Z" fill="#F2F2F2"/>
<path d="M14.914 52.9255H10.774L5.99331 46.6226L4.76117 48.0877V52.9255H1.3999V37.1831H4.76117V44.2136L10.3452 37.1831H14.4852L8.22102 44.5725L14.914 52.9255Z" fill="#8FB39C"/>
<path d="M15.5054 53.2106V50.2362C16.358 50.2362 17.0135 49.8921 17.4669 49.2087C17.9253 48.5253 18.2703 47.1979 18.5069 45.2313L19.4285 37.1831H30.641V52.9255H27.26V40.133H22.4596L21.8435 45.4673C21.6562 47.0553 21.3753 48.3729 21.0056 49.4201C20.636 50.4673 20.1629 51.2588 19.5862 51.7898C19.0096 52.3257 18.4083 52.6944 17.7774 52.9009C17.1466 53.1074 16.3876 53.2106 15.5054 53.2106Z" fill="#8FB39C"/>
<path d="M37.1074 52.9255H33.7461V37.1831H37.1074V52.9255V52.9255Z" fill="#8FB39C"/>
<path d="M79.2416 52.9255H75.8606V46.3178H68.4086V52.9255H65.0474V37.1831H68.4086V43.368H75.8606V37.1831H79.2416V52.9255V52.9255Z" fill="#8FB39C"/>
<path d="M89.3647 52.9255H85.9837V40.133H81.3706V37.1831H93.9581V40.133H89.3696V52.9255H89.3647V52.9255Z" fill="#8FB39C"/>
<path d="M2.49385 73.0973C1.75456 73.0973 1.15328 72.8466 0.694926 72.35C0.231642 71.8485 0 71.2242 0 70.4719C0 69.7197 0.231642 69.1003 0.694926 68.6037C1.15821 68.1071 1.75949 67.8613 2.49385 67.8613C3.26763 67.8613 3.87877 68.1514 4.32727 68.7266L3.80977 69.2035C3.49434 68.7709 3.07049 68.5545 2.5382 68.5545C2.01578 68.5545 1.59685 68.7315 1.28142 69.0904C0.965996 69.4493 0.808283 69.9115 0.808283 70.4719C0.808283 71.0373 0.965996 71.4995 1.28142 71.8584C1.59685 72.2222 2.01578 72.3992 2.5382 72.3992C3.06063 72.3992 3.48449 72.1829 3.80977 71.7502L4.32727 72.2271C3.87877 72.8072 3.26763 73.0973 2.49385 73.0973Z" fill="#F2F2F2"/>
<path d="M7.66867 73.0973C6.92446 73.0973 6.31332 72.8564 5.83525 72.3697C5.35718 71.8829 5.12061 71.2536 5.12061 70.4768C5.12061 69.7492 5.35718 69.1297 5.82539 68.6233C6.2936 68.117 6.8801 67.8662 7.58488 67.8662C8.32416 67.8662 8.90573 68.117 9.33945 68.6233C9.77316 69.1297 9.98509 69.7689 9.98509 70.5407V70.7374H5.93875C5.97324 71.2241 6.15067 71.6371 6.47596 71.9665C6.80124 72.2959 7.22017 72.4631 7.73767 72.4631C8.35866 72.4631 8.87123 72.2517 9.2803 71.8338L9.65487 72.3402C9.14723 72.8416 8.48188 73.0973 7.66867 73.0973ZM9.22116 70.1622C9.21623 69.7394 9.06838 69.3559 8.78745 69.0117C8.50652 68.6725 8.10238 68.5004 7.57502 68.5004C7.07724 68.5004 6.68788 68.6676 6.40203 69.0068C6.11617 69.3461 5.96339 69.7295 5.94367 70.1622H9.22116Z" fill="#F2F2F2"/>
<path d="M13.7015 73.0973C12.9968 73.0973 12.4349 72.8072 12.016 72.2173V74.8721H11.2422V67.9842H12.016V68.7266C12.2033 68.466 12.4448 68.2546 12.7405 68.0973C13.0362 67.94 13.3565 67.8613 13.7015 67.8613C14.362 67.8613 14.8992 68.0973 15.3132 68.5693C15.7272 69.0413 15.9292 69.6755 15.9292 70.4719C15.9292 71.2684 15.7222 71.9075 15.3132 72.3795C14.9041 72.8515 14.3669 73.0973 13.7015 73.0973ZM13.5044 72.4041C13.9923 72.4041 14.3866 72.2222 14.6725 71.8633C14.9632 71.5044 15.1062 71.0373 15.1062 70.4769C15.1062 69.9115 14.9632 69.4493 14.6725 69.0953C14.3817 68.7364 13.9923 68.5595 13.5044 68.5595C13.2087 68.5595 12.9179 68.6381 12.6419 68.7905C12.361 68.9479 12.154 69.1347 12.016 69.351V71.6027C12.154 71.8289 12.361 72.0206 12.6419 72.1779C12.9228 72.3254 13.2087 72.4041 13.5044 72.4041Z" fill="#F2F2F2"/>
<path d="M19.9655 72.9741H17.1611V67.9839H19.9162C20.3499 67.9839 20.6949 68.1019 20.9463 68.333C21.1976 68.5689 21.3258 68.8787 21.3258 69.2622C21.3258 69.5424 21.2469 69.7882 21.0941 69.9898C20.9413 70.1914 20.7491 70.329 20.5175 70.3979C20.7738 70.4618 20.9906 70.6093 21.1631 70.8403C21.3405 71.0763 21.4293 71.332 21.4293 71.6171C21.4293 72.0252 21.3011 72.3497 21.0399 72.6004C20.7787 72.8511 20.4189 72.9741 19.9655 72.9741ZM19.7782 70.0734C20.0148 70.0734 20.1971 70.0095 20.3253 69.8816C20.4583 69.7538 20.5224 69.5866 20.5224 69.3801C20.5224 69.1589 20.4583 68.9868 20.3253 68.859C20.1922 68.7312 20.0098 68.6673 19.7782 68.6673H17.9349V70.0734C17.9349 70.0734 19.7782 70.0734 19.7782 70.0734ZM19.8078 72.2907C20.0542 72.2907 20.2513 72.2218 20.3992 72.0842C20.547 71.9465 20.616 71.7597 20.616 71.5286C20.616 71.3172 20.5421 71.1353 20.3992 70.9829C20.2563 70.8305 20.0591 70.7567 19.8078 70.7567H17.9349V72.2956H19.8078V72.2907Z" fill="#F2F2F2"/>
<path d="M23.2778 67.2762C23.1398 67.2762 23.0215 67.227 22.918 67.1287C22.8145 67.0303 22.7603 66.9074 22.7603 66.7599C22.7603 66.6124 22.8145 66.4895 22.918 66.3863C23.0215 66.283 23.1398 66.2339 23.2778 66.2339C23.4207 66.2339 23.5488 66.283 23.6523 66.3863C23.7558 66.4895 23.8051 66.6124 23.8051 66.7599C23.8051 66.9074 23.7558 67.0254 23.6523 67.1287C23.5488 67.2319 23.4207 67.2762 23.2778 67.2762ZM23.672 72.9743H22.8983V67.9841H23.672V72.9743Z" fill="#F2F2F2"/>
<path d="M27.4274 73.0973C26.6882 73.0973 26.0869 72.8466 25.6285 72.35C25.1652 71.8534 24.9336 71.2241 24.9336 70.4768C24.9336 69.7246 25.1652 69.1052 25.6285 68.6086C26.0918 68.112 26.6931 67.8662 27.4274 67.8662C28.2012 67.8662 28.8124 68.1563 29.2609 68.7315L28.7434 69.2084C28.4279 68.7758 28.0041 68.5594 27.4718 68.5594C26.9494 68.5594 26.5304 68.7364 26.215 69.0953C25.8996 69.4542 25.7419 69.9164 25.7419 70.4768C25.7419 71.0422 25.8996 71.5044 26.215 71.8633C26.5304 72.2271 26.9494 72.4041 27.4718 72.4041C27.9942 72.4041 28.4181 72.1877 28.7434 71.7551L29.2609 72.232C28.8124 72.8072 28.2012 73.0973 27.4274 73.0973Z" fill="#F2F2F2"/>
<path d="M37.1763 72.9741H36.3976V68.6673H33.7904V72.9741H33.0166V67.9839H37.1763V72.9741Z" fill="#F2F2F2"/>
<path d="M42.711 72.3451C42.2576 72.8465 41.6612 73.0973 40.917 73.0973C40.1728 73.0973 39.5715 72.8465 39.123 72.3451C38.6696 71.8436 38.4429 71.2192 38.4429 70.4768C38.4429 69.7345 38.6696 69.1101 39.123 68.6135C39.5764 68.112 40.1728 67.8662 40.917 67.8662C41.6612 67.8662 42.2625 68.117 42.711 68.6135C43.1644 69.1101 43.3911 69.7345 43.3911 70.4768C43.3911 71.2192 43.1595 71.8387 42.711 72.3451ZM39.6947 71.8436C39.9954 72.2172 40.3995 72.4041 40.9121 72.4041C41.4246 72.4041 41.8239 72.2172 42.1245 71.8436C42.4202 71.47 42.5681 71.0127 42.5681 70.4768C42.5681 69.9409 42.4202 69.4837 42.1245 69.115C41.8288 68.7413 41.4246 68.5594 40.9121 68.5594C40.3995 68.5594 39.9954 68.7463 39.6947 69.1199C39.3941 69.4935 39.2462 69.9459 39.2462 70.4768C39.2462 71.0127 39.399 71.465 39.6947 71.8436Z" fill="#F2F2F2"/>
<path d="M50.4242 67.9839H51.2029V72.9691H44.6479V67.9839H45.4217V72.2907H47.5312V67.9839H48.3099V72.2907H50.4193V67.9839H50.4242V67.9839Z" fill="#F2F2F2"/>
<path d="M52.4741 74.9263L52.5973 74.2233C52.7205 74.2774 52.8634 74.3069 53.0211 74.3069C53.1986 74.3069 53.3514 74.2675 53.4647 74.1938C53.583 74.12 53.6816 73.9824 53.7654 73.7808L54.0956 73.0286L52.0059 67.9893H52.8437L54.5096 72.0797L56.1656 67.9893H57.0133L54.5096 73.9873C54.2336 74.6461 53.7456 74.9853 53.0409 75.0001C52.8339 74.9952 52.6466 74.9706 52.4741 74.9263Z" fill="#F2F2F2"/>
<path d="M62.2229 72.9741H61.2274L59.4284 70.7322L58.6004 71.5483V72.9741H57.8267V67.9839H58.6004V70.6388L61.2274 67.9839H62.2131L60.0001 70.2454L62.2229 72.9741Z" fill="#F2F2F2"/>
<path d="M62.8637 74.9263L62.9869 74.2233C63.1102 74.2774 63.2531 74.3069 63.4108 74.3069C63.5882 74.3069 63.7361 74.2675 63.8544 74.1938C63.9726 74.12 64.0712 73.9824 64.155 73.7808L64.4852 73.0286L62.3955 67.9893H63.2334L64.8992 72.0797L66.5552 67.9893H67.4029L64.8992 73.9873C64.6232 74.6461 64.1353 74.9853 63.4305 75.0001C63.2284 74.9952 63.0362 74.9706 62.8637 74.9263Z" fill="#F2F2F2"/>
<path d="M75.2835 72.9741H74.2879L72.489 70.7322L71.661 71.5483V72.9741H70.8823V67.9839H71.661V70.6388L74.2879 67.9839H75.2737L73.0607 70.2454L75.2835 72.9741Z" fill="#F2F2F2"/>
<path d="M75.6138 73.097V72.4578C75.8503 72.4578 76.0426 72.3005 76.1953 71.9908C76.3481 71.681 76.4713 71.1648 76.5699 70.4421L76.8903 67.9839H80.3698V72.9691H79.5911V68.6673H77.5753L77.3486 70.5355C77.2402 71.45 77.043 72.1088 76.767 72.5021C76.4861 72.9003 76.1066 73.097 75.6138 73.097Z" fill="#F2F2F2"/>
<path d="M82.3017 67.2762C82.1637 67.2762 82.0405 67.227 81.937 67.1287C81.8335 67.0303 81.7793 66.9074 81.7793 66.7599C81.7793 66.6124 81.8335 66.4895 81.937 66.3863C82.0405 66.283 82.1637 66.2339 82.3017 66.2339C82.4447 66.2339 82.5728 66.283 82.6763 66.3863C82.7798 66.4895 82.8291 66.6124 82.8291 66.7599C82.8291 66.9074 82.7798 67.0254 82.6763 67.1287C82.5728 67.2319 82.4447 67.2762 82.3017 67.2762ZM82.696 72.9743H81.9173V67.9841H82.696V72.9743Z" fill="#F2F2F2"/>
<path d="M86.4519 73.0973C85.7126 73.0973 85.1113 72.8466 84.6529 72.35C84.1896 71.8534 83.958 71.2241 83.958 70.4768C83.958 69.7246 84.1896 69.1052 84.6529 68.6086C85.1162 68.112 85.7175 67.8662 86.4519 67.8662C87.2256 67.8662 87.8368 68.1563 88.2853 68.7315L87.7875 69.1838C87.4573 68.7315 87.0236 68.5004 86.4962 68.5004C86.028 68.5004 85.6386 68.6479 85.338 68.938C85.0374 69.2281 84.8501 69.6214 84.7909 70.1081H87.3045V70.7817H84.7811C84.8353 71.293 85.0176 71.6961 85.3183 72.0009C85.6189 72.3057 86.0132 72.4532 86.4962 72.4532C87.0186 72.4532 87.4523 72.2271 87.7875 71.7699L88.2853 72.2222C87.8368 72.8072 87.2256 73.0973 86.4519 73.0973Z" fill="#F2F2F2"/>
<path d="M90.1483 72.9741H89.3745V67.9839H90.1483V70.0586H92.7555V67.9839H93.5342V72.9691H92.7555V70.7371H90.1483V72.9741Z" fill="#F2F2F2"/>
<path d="M96.7721 72.9741H95.9934V68.6673H94.5444V67.9839H98.231V68.6673H96.7721V72.9741Z" fill="#F2F2F2"/>
<path d="M99.6259 67.2762C99.4879 67.2762 99.3647 67.227 99.2612 67.1287C99.1577 67.0303 99.1035 66.9074 99.1035 66.7599C99.1035 66.6124 99.1577 66.4895 99.2612 66.3863C99.3647 66.283 99.4879 66.2339 99.6259 66.2339C99.7689 66.2339 99.897 66.283 100.001 66.3863C100.104 66.4895 100.153 66.6124 100.153 66.7599C100.153 66.9074 100.104 67.0254 100.001 67.1287C99.897 67.2319 99.7738 67.2762 99.6259 67.2762ZM100.02 72.9743H99.2415V67.9841H100.02V72.9743Z" fill="#F2F2F2"/>
<path d="M104.377 72.9741H101.573V67.9839H104.328C104.762 67.9839 105.107 68.1019 105.358 68.333C105.609 68.5689 105.737 68.8787 105.737 69.2622C105.737 69.5424 105.659 69.7882 105.506 69.9898C105.348 70.1914 105.161 70.329 104.929 70.3979C105.185 70.4618 105.402 70.6093 105.575 70.8403C105.752 71.0763 105.841 71.332 105.841 71.6171C105.841 72.0252 105.713 72.3497 105.452 72.6004C105.19 72.8462 104.835 72.9741 104.377 72.9741ZM104.19 70.0734C104.426 70.0734 104.609 70.0095 104.737 69.8816C104.87 69.7538 104.934 69.5866 104.934 69.3801C104.934 69.1589 104.87 68.9868 104.737 68.859C104.604 68.7312 104.421 68.6673 104.19 68.6673H102.347V70.0734C102.347 70.0734 104.19 70.0734 104.19 70.0734ZM104.224 72.2907C104.471 72.2907 104.668 72.2218 104.816 72.0842C104.964 71.9465 105.033 71.7597 105.033 71.5286C105.033 71.3172 104.959 71.1353 104.816 70.9829C104.673 70.8305 104.476 70.7567 104.224 70.7567H102.351V72.2956H104.224V72.2907Z" fill="#F2F2F2"/>
<path d="M56.6442 26.986C56.9103 27.0205 57.1469 26.8336 57.1765 26.5682C57.211 26.3027 57.0237 26.0618 56.7575 26.0372V26.0273C56.7378 26.0273 56.7181 26.0273 56.6984 26.0273C56.4569 26.0273 56.2499 26.2043 56.2203 26.4502C56.1858 26.7107 56.378 26.9467 56.6442 26.986Z" fill="#8FB39C"/>
<path d="M59.355 27.6006C59.6063 27.6891 59.8823 27.5564 59.9661 27.3007C60.0548 27.05 59.9168 26.7747 59.6655 26.6911C59.6162 26.6763 59.557 26.6665 59.5077 26.6665C59.3106 26.6665 59.1233 26.7943 59.0543 26.991C58.9656 27.2466 59.0987 27.522 59.355 27.6006Z" fill="#8FB39C"/>
<path d="M58.0144 27.2272C58.2756 27.2862 58.5269 27.1239 58.591 26.8683C58.6502 26.6077 58.4826 26.3471 58.2312 26.293C58.1918 26.2832 58.1622 26.2832 58.1228 26.2832C57.9059 26.2832 57.7039 26.4307 57.6546 26.6519C57.5905 26.9076 57.7532 27.1632 58.0144 27.2272Z" fill="#8FB39C"/>
<path d="M47.472 29.5474C47.6839 29.3901 47.7283 29.0852 47.5755 28.8788C47.4819 28.7509 47.334 28.687 47.1861 28.687C47.0826 28.687 46.9841 28.7165 46.9003 28.7755C46.6834 28.9328 46.6391 29.2377 46.7968 29.4441C46.9545 29.6654 47.2601 29.7096 47.472 29.5474Z" fill="#8FB39C"/>
<path d="M44.4413 31.8434C44.3526 31.7795 44.2589 31.7549 44.1604 31.7549C44.0076 31.7549 43.8597 31.8237 43.7661 31.9565C43.6133 32.1728 43.6576 32.4678 43.8745 32.6251C44.0914 32.7775 44.3969 32.7283 44.5497 32.5169C44.7074 32.3006 44.6581 32.0007 44.4413 31.8434Z" fill="#8FB39C"/>
<path d="M45.4168 31.4254C45.5943 31.2287 45.5745 30.9239 45.3774 30.7469C45.2887 30.6633 45.1704 30.6289 45.062 30.6289C44.9289 30.6289 44.7909 30.683 44.7022 30.7961C44.5248 30.9927 44.5445 31.2975 44.7416 31.4745C44.9388 31.6417 45.2443 31.6269 45.4168 31.4254Z" fill="#8FB39C"/>
<path d="M46.398 30.4324C46.5951 30.2554 46.605 29.9506 46.4276 29.754C46.3339 29.6507 46.2009 29.6016 46.0727 29.6016C45.9594 29.6016 45.8411 29.6458 45.7474 29.7294C45.5503 29.9113 45.5355 30.2161 45.7179 30.4128C45.8953 30.6045 46.2058 30.6193 46.398 30.4324C46.398 30.4374 46.398 30.4374 46.398 30.4324Z" fill="#8FB39C"/>
<path d="M43.618 33.0332C43.549 32.9889 43.4603 32.9692 43.3814 32.9692C43.2138 32.9692 43.0512 33.0577 42.9625 33.2101C42.8294 33.4412 42.9132 33.7362 43.1399 33.864C43.3716 33.9968 43.6673 33.9132 43.7954 33.687C43.7954 33.687 43.7954 33.687 43.8003 33.687C43.9334 33.451 43.8496 33.161 43.618 33.0332Z" fill="#8FB39C"/>
<path d="M41.8488 36.9907C41.627 36.9907 41.4249 37.1431 41.3805 37.3693C41.3214 37.6299 41.489 37.8855 41.7502 37.9347C42.0114 37.9937 42.2627 37.8265 42.317 37.5659C42.3761 37.3054 42.2085 37.0546 41.9473 37.0006C41.9128 36.9907 41.8783 36.9907 41.8488 36.9907Z" fill="#8FB39C"/>
<path d="M42.9231 34.2967C42.859 34.2672 42.795 34.2524 42.7309 34.2524C42.5436 34.2524 42.3711 34.3606 42.2873 34.5425C42.1789 34.7883 42.2923 35.0686 42.5338 35.1767C42.7802 35.2849 43.0611 35.1718 43.1695 34.9309C43.278 34.6851 43.1646 34.3999 42.9231 34.2967Z" fill="#8FB39C"/>
<path d="M42.3661 35.6193C42.3168 35.6045 42.2626 35.5996 42.2182 35.5996C42.0162 35.5996 41.8289 35.7274 41.7599 35.929C41.6761 36.1847 41.819 36.4551 42.0704 36.5337C42.3217 36.6173 42.5977 36.4747 42.6717 36.224C42.7554 35.9782 42.6174 35.7029 42.3661 35.6193Z" fill="#8FB39C"/>
<path d="M48.7933 28.1168C48.7046 27.9644 48.5419 27.8809 48.3793 27.8809C48.2955 27.8809 48.2117 27.9005 48.1329 27.9497C47.9061 28.0824 47.8273 28.3823 47.9702 28.6085C48.1033 28.8396 48.399 28.9133 48.6306 28.7756C48.8574 28.638 48.9362 28.343 48.7933 28.1168Z" fill="#8FB39C"/>
<path d="M54.2884 26.4502C54.2588 26.2043 54.0518 26.0273 53.8103 26.0273C53.7906 26.0273 53.7709 26.0273 53.7511 26.0273V26.0323C53.485 26.0618 53.2977 26.3027 53.3322 26.5632C53.3667 26.8287 53.6033 27.0155 53.8645 26.9811C54.1306 26.9467 54.3179 26.7107 54.2884 26.4502Z" fill="#8FB39C"/>
<path d="M51.4544 26.991C51.3854 26.7943 51.1981 26.6665 51.001 26.6665C50.9517 26.6665 50.8925 26.6763 50.8433 26.6911C50.5919 26.7796 50.4588 27.05 50.5426 27.3007C50.6313 27.5564 50.9024 27.6891 51.1538 27.6006C51.4051 27.522 51.5382 27.2466 51.4544 26.991Z" fill="#8FB39C"/>
<path d="M52.8543 26.6471C52.8051 26.4258 52.603 26.2783 52.3861 26.2783C52.3467 26.2783 52.3171 26.2783 52.2777 26.2882C52.0214 26.3472 51.8588 26.6028 51.9179 26.8634C51.982 27.1239 52.2333 27.2813 52.4946 27.2223C52.7558 27.1633 52.9184 26.9076 52.8543 26.6471Z" fill="#8FB39C"/>
<path d="M50.0941 27.4878C50.0103 27.3108 49.8378 27.2075 49.6555 27.2075C49.5865 27.2075 49.5224 27.2223 49.4534 27.2518C49.2119 27.3599 49.1084 27.65 49.2217 27.8909C49.3351 28.1318 49.616 28.24 49.8625 28.122C50.104 28.0138 50.2075 27.7287 50.0941 27.4878Z" fill="#8FB39C"/>
<path d="M55.2642 27.4531C55.0277 27.4531 54.8354 27.2614 54.8354 27.0254V25.5947C54.8354 25.3587 55.0277 25.167 55.2642 25.167C55.5008 25.167 55.693 25.3587 55.693 25.5947V27.0254C55.693 27.2614 55.5008 27.4531 55.2642 27.4531Z" fill="#8FB39C"/>
<path d="M40.7002 38.7461C40.7002 38.5101 40.8924 38.3184 41.129 38.3184H42.5632C42.7998 38.3184 42.992 38.5101 42.992 38.7461C42.992 38.9821 42.7998 39.1738 42.5632 39.1738H41.129C40.8924 39.1787 40.7002 38.9821 40.7002 38.7461Z" fill="#8FB39C"/>
<path d="M59.9903 53.643C58.566 54.1592 57.0283 54.4394 55.4265 54.4394C48.0386 54.4394 42.0405 48.4611 42.0405 41.0864" stroke="#8FB39C" stroke-width="5" stroke-miterlimit="10"/>
<path d="M58.3593 38.8001L61.0405 36.1256C61.3312 35.8355 61.3312 35.3733 61.0405 35.0833C60.7497 34.7932 60.2864 34.7932 59.9956 35.0833L57.3145 37.7578C56.1858 37.0941 54.7122 37.2367 53.7413 38.2052C53.3519 38.5936 53.1153 39.0557 52.9872 39.5474H44.3672C43.9581 39.5474 43.6328 39.8768 43.6328 40.2799C43.6328 40.4815 43.7166 40.6683 43.8497 40.8011C43.9827 40.9338 44.1651 41.0174 44.3721 41.0174H52.9921C53.1203 41.509 53.3618 41.9761 53.7462 42.3596C54.8946 43.5051 56.7625 43.5051 57.9108 42.3596C58.8768 41.396 59.0148 39.921 58.3593 38.8001ZM54.7861 41.3222C54.2144 40.7519 54.2144 39.8178 54.7861 39.2426C55.3578 38.6723 56.2943 38.6723 56.8709 39.2426C57.4426 39.8129 57.4426 40.747 56.8709 41.3222C56.2943 41.8925 55.3578 41.8925 54.7861 41.3222Z" fill="#8FB39C"/>
</g>
<defs>
<clipPath id="clip0_204_70">
<rect width="149" height="75" fill="white"/>
</clipPath>
</defs>
</svg>
